<svg width="30" height="30" viewBox="0 0 30 30" fill="none" xmlns="http://www.w3.org/2000/svg">
<rect y="-0.000488281" width="29.9995" height="29.9995" rx="5" fill="white"/>
<path d="M28.3427 -0.000488281H1.65577C0.741936 -0.000488281 0 0.739966 0 1.65528V28.3423C0 29.2576 0.741936 29.999 1.65577 29.999H16.0232V18.3814H12.114V13.8533H16.0232V10.5141C16.0232 6.63989 18.3888 4.52917 21.8456 4.52917C23.5029 4.52917 24.924 4.65316 25.3384 4.707V8.75653L22.9407 8.75752C21.0612 8.75752 20.6986 9.6511 20.6986 10.9616V13.8518H25.1828L24.5965 18.3795H20.6981V29.9975H28.3422C29.2571 29.9975 29.9995 29.2551 29.9995 28.3423V1.6543C29.999 0.739966 29.2576 -0.000488281 28.3427 -0.000488281Z" fill="#115B9D"/>
</svg>
