<svg width="30" height="30" viewBox="0 0 30 30" fill="none" xmlns="http://www.w3.org/2000/svg">
<path d="M28.3427 0H1.65577C0.741936 0 0 0.740454 0 1.65577V28.3427C0 29.2581 0.741936 29.9995 1.65577 29.9995H16.0232V18.3819H12.114V13.8538H16.0232V10.5145C16.0232 6.64038 18.3888 4.52966 21.8456 4.52966C23.5029 4.52966 24.924 4.65365 25.3384 4.70749V8.75702L22.9407 8.75801C21.0612 8.75801 20.6986 9.65159 20.6986 10.9621V13.8523H25.1828L24.5965 18.38H20.6981V29.998H28.3422C29.2571 29.998 29.9995 29.2556 29.9995 28.3427V1.65478C29.999 0.740454 29.2576 0 28.3427 0Z" fill="#F0F0F0"/>
</svg>
