<svg width="30" height="30" viewBox="0 0 30 30" fill="none" xmlns="http://www.w3.org/2000/svg">
<g clip-path="url(#clip0_44_791)">
<path d="M28.3427 0.000576019H1.65577C0.741936 0.000576019 0 0.74103 0 1.65635V28.3433C0 29.2586 0.741936 30.0001 1.65577 30.0001H16.0232V18.3825H12.114V13.8543H16.0232V10.5151C16.0232 6.64095 18.3888 4.53024 21.8456 4.53024C23.5029 4.53024 24.924 4.65422 25.3384 4.70807V8.75759L22.9407 8.75858C21.0612 8.75858 20.6986 9.65217 20.6986 10.9627V13.8528H25.1828L24.5965 18.3805H20.6981V29.9986H28.3422C29.2571 29.9986 29.9995 29.2562 29.9995 28.3433V1.65536C29.999 0.74103 29.2576 0.000576019 28.3427 0.000576019Z" fill="#0A0A0A"/>
</g>
<defs>
<clipPath id="clip0_44_791">
<rect width="30.0005" height="30" fill="white"/>
</clipPath>
</defs>
</svg>
