<svg width="30" height="30" viewBox="0 0 30 30" fill="none" xmlns="http://www.w3.org/2000/svg">
<path d="M23.3435 29.9842L6.68564 30C3.02091 30.0033 0.0199923 27.0082 0.0158278 23.3435L2.77671e-06 6.68564C-0.0033288 3.02091 2.99176 0.0199923 6.65649 0.0158278L23.3144 2.77671e-06C26.9791 -0.0033288 29.98 2.99176 29.9842 6.65649L30 23.3144C30.0042 26.9799 27.0082 29.9808 23.3435 29.9842Z" fill="url(#paint0_radial_57_1077)"/>
<path d="M23.3435 29.9842L6.68564 30C3.02091 30.0033 0.0199923 27.0082 0.0158278 23.3435L2.77671e-06 6.68564C-0.0033288 3.02091 2.99176 0.0199923 6.65649 0.0158278L23.3144 2.77671e-06C26.9791 -0.0033288 29.98 2.99176 29.9842 6.65649L30 23.3144C30.0042 26.9799 27.0082 29.9808 23.3435 29.9842Z" fill="url(#paint1_radial_57_1077)"/>
<path d="M15.0004 20.8307C11.7863 20.8307 9.17017 18.2154 9.17017 15.0004C9.17017 11.7854 11.7863 9.17016 15.0004 9.17016C18.2146 9.17016 20.8307 11.7854 20.8307 15.0004C20.8307 18.2154 18.2146 20.8307 15.0004 20.8307ZM15.0004 10.8359C12.7041 10.8359 10.836 12.7041 10.836 15.0004C10.836 17.2967 12.7041 19.1649 15.0004 19.1649C17.2967 19.1649 19.1649 17.2967 19.1649 15.0004C19.1649 12.7041 17.2967 10.8359 15.0004 10.8359Z" fill="white"/>
<path d="M21.2471 10.0031C21.9371 10.0031 22.4965 9.44371 22.4965 8.75372C22.4965 8.06372 21.9371 7.50438 21.2471 7.50438C20.5572 7.50438 19.9978 8.06372 19.9978 8.75372C19.9978 9.44371 20.5572 10.0031 21.2471 10.0031Z" fill="white"/>
<path d="M19.9978 25.828H10.0031C6.78897 25.828 4.17285 23.2127 4.17285 19.9978V10.0031C4.17285 6.78808 6.78897 4.1728 10.0031 4.1728H19.9978C23.212 4.1728 25.8281 6.78808 25.8281 10.0031V19.9978C25.8281 23.2127 23.212 25.828 19.9978 25.828ZM10.0031 5.83859C7.70682 5.83859 5.83864 7.70677 5.83864 10.0031V19.9978C5.83864 22.2941 7.70682 24.1622 10.0031 24.1622H19.9978C22.2941 24.1622 24.1623 22.2941 24.1623 19.9978V10.0031C24.1623 7.70677 22.2941 5.83859 19.9978 5.83859H10.0031Z" fill="white"/>
<defs>
<radialGradient id="paint0_radial_57_1077" cx="0" cy="0" r="1" gradientUnits="userSpaceOnUse" gradientTransform="translate(11.1524 30.0217) scale(37.3961 37.3961)">
<stop stop-color="#FFDD55"/>
<stop offset="0.328" stop-color="#FF543F"/>
<stop offset="0.348" stop-color="#FC5245"/>
<stop offset="0.504" stop-color="#E64771"/>
<stop offset="0.643" stop-color="#D53E91"/>
<stop offset="0.761" stop-color="#CC39A4"/>
<stop offset="0.841" stop-color="#C837AB"/>
</radialGradient>
<radialGradient id="paint1_radial_57_1077" cx="0" cy="0" r="1" gradientUnits="userSpaceOnUse" gradientTransform="translate(4.82745 -0.374548) scale(24.8311 16.5449)">
<stop stop-color="#4168C9"/>
<stop offset="0.999" stop-color="#4168C9" stop-opacity="0"/>
</radialGradient>
</defs>
</svg>
