<svg width="30" height="30" viewBox="0 0 30 30" fill="none" xmlns="http://www.w3.org/2000/svg">
<path fill-rule="evenodd" clip-rule="evenodd" d="M6.68564 30L23.3435 29.9842C27.0082 29.9808 30.0042 26.9799 30 23.3144L29.9842 6.65649C29.98 2.99176 26.9791 -0.00332888 23.3144 2.77686e-06L6.65649 0.0158276C2.99176 0.0199923 -0.00332888 3.02091 2.77686e-06 6.68564L0.0158276 23.3435C0.0199923 27.0082 3.02091 30.0033 6.68564 30ZM10.0031 25.828H19.9978C23.212 25.828 25.8281 23.2127 25.8281 19.9978V10.0031C25.8281 6.78808 23.212 4.1728 19.9978 4.1728H10.0031C6.78897 4.1728 4.17285 6.78808 4.17285 10.0031V19.9978C4.17285 23.2127 6.78897 25.828 10.0031 25.828ZM5.83864 10.0031C5.83864 7.70677 7.70682 5.83859 10.0031 5.83859H19.9978C22.2941 5.83859 24.1623 7.70677 24.1623 10.0031V19.9978C24.1623 22.2941 22.2941 24.1622 19.9978 24.1622H10.0031C7.70682 24.1622 5.83864 22.2941 5.83864 19.9978V10.0031ZM21.2471 10.0031C21.9371 10.0031 22.4965 9.44371 22.4965 8.75372C22.4965 8.06372 21.9371 7.50438 21.2471 7.50438C20.5572 7.50438 19.9978 8.06372 19.9978 8.75372C19.9978 9.44371 20.5572 10.0031 21.2471 10.0031ZM15.0004 20.8307C11.7863 20.8307 9.17017 18.2154 9.17017 15.0004C9.17017 11.7854 11.7863 9.17016 15.0004 9.17016C18.2146 9.17016 20.8307 11.7854 20.8307 15.0004C20.8307 18.2154 18.2146 20.8307 15.0004 20.8307ZM15.0004 10.8359C12.7041 10.8359 10.836 12.7041 10.836 15.0004C10.836 17.2967 12.7041 19.1649 15.0004 19.1649C17.2967 19.1649 19.1649 17.2967 19.1649 15.0004C19.1649 12.7041 17.2967 10.8359 15.0004 10.8359Z" fill="white"/>
</svg>
