<svg width="30" height="30" viewBox="0 0 30 30" fill="none" xmlns="http://www.w3.org/2000/svg">
<g clip-path="url(#clip0_44_798)">
<path d="M28.3497 1.65024C27.2499 0.550149 25.9248 0 24.3755 0H5.62536C4.07603 0 2.75093 0.550149 1.65064 1.65024C0.550545 2.75054 0.000396729 4.07556 0.000396729 5.62497V24.3749C0.000396729 25.9242 0.550545 27.2493 1.65064 28.3496C2.75093 29.4499 4.07603 30.0001 5.62536 30.0001H24.3753C25.9246 30.0001 27.2497 29.4499 28.3495 28.3496C29.4498 27.2493 30 25.9242 30 24.3749V5.62497C29.9999 4.07556 29.4498 2.75033 28.3497 1.65024ZM22.9496 11.5431C22.9626 11.6603 22.9693 11.8357 22.9693 12.0705C22.9693 13.1643 22.8096 14.2613 22.4908 15.3613C22.1719 16.4618 21.6835 17.5164 21.0257 18.5255C20.3686 19.5345 19.584 20.4266 18.6727 21.2013C17.7611 21.9757 16.6675 22.5945 15.3912 23.0564C14.1155 23.519 12.7481 23.7503 11.2899 23.7503C9.02442 23.7503 6.92808 23.1379 5.00092 21.9144C5.31342 21.9533 5.63911 21.9729 5.97747 21.9729C7.86557 21.9729 9.56479 21.387 11.0753 20.2148C10.19 20.2021 9.39883 19.9289 8.70228 19.3945C8.00553 18.8607 7.52065 18.1837 7.24714 17.3633C7.58557 17.4153 7.83943 17.4411 8.00868 17.4411C8.29511 17.4411 8.62724 17.3891 9.00472 17.2852C8.05424 17.1026 7.25358 16.6311 6.60252 15.8693C5.95133 15.1075 5.62584 14.2385 5.62584 13.262V13.2229C6.31575 13.5482 6.9668 13.7175 7.57886 13.7307C6.39394 12.9362 5.80152 11.7971 5.80152 10.3127C5.80152 9.58348 5.99019 8.89343 6.36781 8.24238C7.39635 9.50549 8.6466 10.5145 10.1177 11.2696C11.589 12.0247 13.1647 12.4481 14.8443 12.5392C14.7793 12.2918 14.7467 11.9792 14.7467 11.6017C14.7467 10.4687 15.1471 9.50207 15.9479 8.7012C16.7485 7.9004 17.7154 7.49986 18.8481 7.49986C20.0463 7.49986 21.0426 7.92968 21.8368 8.78911C22.7352 8.61986 23.608 8.28767 24.4541 7.79307C24.1287 8.7954 23.5228 9.55721 22.6378 10.0781C23.4839 9.96069 24.2714 9.73945 25.0005 9.41396C24.4537 10.2473 23.7699 10.9569 22.9496 11.5431Z" fill="#0A0A0A"/>
</g>
<defs>
<clipPath id="clip0_44_798">
<rect width="30" height="30" fill="white"/>
</clipPath>
</defs>
</svg>
