<svg width="30" height="30" viewBox="0 0 30 30" fill="none" xmlns="http://www.w3.org/2000/svg">
<rect y="6.10352e-05" width="29.9996" height="30.0001" rx="10" fill="white"/>
<path d="M28.3493 1.6503C27.2495 0.55021 25.9244 6.10352e-05 24.3751 6.10352e-05H5.62497C4.07563 6.10352e-05 2.75054 0.55021 1.65024 1.6503C0.550149 2.7506 0 4.07562 0 5.62503V24.375C0 25.9242 0.550149 27.2494 1.65024 28.3497C2.75054 29.45 4.07563 30.0001 5.62497 30.0001H24.3749C25.9242 30.0001 27.2493 29.45 28.3491 28.3497C29.4494 27.2494 29.9996 25.9243 29.9996 24.375V5.62503C29.9995 4.07562 29.4494 2.75039 28.3493 1.6503ZM22.9492 11.5431C22.9622 11.6603 22.9689 11.8358 22.9689 12.0706C22.9689 13.1644 22.8092 14.2614 22.4904 15.3613C22.1715 16.4618 21.6831 17.5165 21.0253 18.5255C20.3682 19.5345 19.5836 20.4267 18.6723 21.2014C17.7607 21.9758 16.6671 22.5945 15.3908 23.0564C14.1151 23.519 12.7477 23.7503 11.2895 23.7503C9.02402 23.7503 6.92769 23.1379 5.00052 21.9145C5.31302 21.9533 5.63872 21.973 5.97707 21.973C7.86517 21.973 9.56439 21.387 11.0749 20.2148C10.1896 20.2022 9.39843 19.929 8.70189 19.3945C8.00514 18.8607 7.52025 18.1838 7.24675 17.3634C7.58517 17.4154 7.83904 17.4412 8.00828 17.4412C8.29471 17.4412 8.62684 17.3892 9.00432 17.2853C8.05384 17.1027 7.25318 16.6311 6.60213 15.8694C5.95094 15.1076 5.62544 14.2385 5.62544 13.2621V13.223C6.31535 13.5483 6.96641 13.7175 7.57847 13.7307C6.39355 12.9363 5.80112 11.7971 5.80112 10.3128C5.80112 9.58354 5.98979 8.89349 6.36741 8.24244C7.39595 9.50555 8.6462 10.5145 10.1173 11.2697C11.5886 12.0248 13.1643 12.4482 14.8439 12.5392C14.7789 12.2919 14.7463 11.9792 14.7463 11.6018C14.7463 10.4688 15.1467 9.50213 15.9475 8.70126C16.7481 7.90046 17.715 7.49992 18.8477 7.49992C20.0459 7.49992 21.0422 7.92974 21.8364 8.78917C22.7349 8.61992 23.6076 8.28773 24.4537 7.79313C24.1283 8.79546 23.5224 9.55727 22.6374 10.0781C23.4835 9.96075 24.2711 9.73951 25.0001 9.41402C24.4533 10.2473 23.7695 10.9569 22.9492 11.5431Z" fill="#03A9F4"/>
</svg>
